<svg width="24" height="24" viewBox="0 0 24 24" fill="none" xmlns="http://www.w3.org/2000/svg">
<g clip-path="url(#clip0_20_255)">
<path d="M9.89222 19.7661C4.44268 19.7661 0.0091629 15.3326 0.0091629 9.88306C0.0091629 4.43351 4.44268 0 9.89222 0C15.3418 0 19.7753 4.43351 19.7753 9.88306C19.7753 15.3326 15.3418 19.7661 9.89222 19.7661ZM9.89222 1.87357C5.47576 1.87357 1.88273 5.4666 1.88273 9.88306C1.88273 14.2995 5.47576 17.8925 9.89222 17.8925C14.3087 17.8925 17.9017 14.2995 17.9017 9.88306C17.9017 5.4666 14.3087 1.87357 9.89222 1.87357ZM23.7165 23.7256C24.0823 23.3598 24.0823 22.7666 23.7165 22.4008L19.5244 18.2087C19.1585 17.8428 18.5653 17.8428 18.1995 18.2087C17.8337 18.5745 17.8337 19.1677 18.1995 19.5335L22.3916 23.7256C22.5745 23.9085 22.8143 23.9999 23.0541 23.9999C23.2938 23.9999 23.5335 23.9085 23.7165 23.7256Z" fill="white"/>
<rect x="18.9729" y="17.1649" width="7.99002" height="2.05775" rx="1.02888" transform="rotate(47.0828 18.9729 17.1649)" fill="white"/>
</g>
<defs>
<clipPath id="clip0_20_255">
<rect width="24" height="24" fill="white"/>
</clipPath>
</defs>
</svg>
