<svg width="25" height="25" viewBox="0 0 25 25" fill="none" xmlns="http://www.w3.org/2000/svg">
<path d="M12.5 0C5.59476 0 0 5.59476 0 12.5C0 19.4052 5.59476 25 12.5 25C19.4052 25 25 19.4052 25 12.5C25 5.59476 19.4052 0 12.5 0ZM15.378 17.6462L10.9325 14.4153C10.7762 14.2994 10.6855 14.1179 10.6855 13.9264V5.44355C10.6855 5.11089 10.9577 4.83871 11.2903 4.83871H13.7097C14.0423 4.83871 14.3145 5.11089 14.3145 5.44355V12.3841L17.5151 14.7127C17.7873 14.9093 17.8427 15.2873 17.6462 15.5595L16.2248 17.5151C16.0282 17.7823 15.6502 17.8427 15.378 17.6462Z" fill="#7C7C7C"/>
</svg>
