<svg width="25" height="12" viewBox="0 0 25 12" fill="none" xmlns="http://www.w3.org/2000/svg">
<path opacity="0.44" fill-rule="evenodd" clip-rule="evenodd" d="M23.4694 3.57143L23.9387 3.88431C24.6017 4.32633 25 5.07048 25 5.86735C25 6.66422 24.6017 7.40836 23.9387 7.85038L23.4694 8.16327V3.57143ZM1.87075 0H20.5782C21.6114 0 22.449 0.913705 22.449 2.04082V9.69388C22.449 10.821 21.6114 11.7347 20.5782 11.7347H1.87075C0.837563 11.7347 0 10.821 0 9.69388V2.04082C0 0.913705 0.837563 0 1.87075 0ZM1.94805 1.02041C1.43573 1.02041 1.02041 1.47726 1.02041 2.04082V9.69388C1.02041 10.2574 1.43573 10.7143 1.94805 10.7143H20.5009C21.0133 10.7143 21.4286 10.2574 21.4286 9.69388V2.04082C21.4286 1.47726 21.0133 1.02041 20.5009 1.02041H1.94805Z" fill="white"/>
<path fill-rule="evenodd" clip-rule="evenodd" d="M2.93367 2.04082H16.3265V9.69388H2.93367C2.44056 9.69388 2.04082 9.23703 2.04082 8.67347V3.06122C2.04082 2.49767 2.44056 2.04082 2.93367 2.04082Z" fill="white"/>
</svg>
