<svg width="27" height="28" viewBox="0 0 27 28" fill="none" xmlns="http://www.w3.org/2000/svg">
<path d="M13.7899 20.7481V19.5379C14.0156 19.4056 14.2037 19.2104 14.3343 18.973C14.465 18.7357 14.5333 18.4649 14.5321 18.1894C14.5334 17.7781 14.3824 17.383 14.1121 17.0908C13.8417 16.7987 13.4742 16.6332 13.0901 16.6308C12.7707 16.6275 12.4591 16.7363 12.2029 16.9406C11.9467 17.1448 11.7601 17.4333 11.6715 17.7619C11.5829 18.0905 11.5972 18.4411 11.7123 18.7601C11.8274 19.0791 12.0369 19.349 12.3088 19.5285V20.748C12.3088 20.9583 12.3868 21.16 12.5257 21.3087C12.6646 21.4574 12.853 21.541 13.0494 21.541C13.2458 21.541 13.4341 21.4574 13.573 21.3087C13.7119 21.16 13.7899 20.9583 13.7899 20.748V20.7481ZM13.177 19.3284V20.7481C13.177 20.7844 13.1636 20.8192 13.1397 20.8448C13.1157 20.8704 13.0832 20.8848 13.0494 20.8848C13.0155 20.8848 12.983 20.8704 12.9591 20.8448C12.9351 20.8192 12.9217 20.7844 12.9217 20.7481V19.3284C12.9217 19.2638 12.9039 19.2006 12.8705 19.1468C12.8371 19.0929 12.7895 19.0509 12.7339 19.0259C12.5817 18.9555 12.4523 18.8386 12.3621 18.6897C12.2719 18.5408 12.2249 18.3666 12.227 18.1891C12.227 17.7 12.6222 17.2868 13.0901 17.2868C13.3117 17.289 13.5235 17.3853 13.6789 17.5544C13.8343 17.7236 13.9208 17.9518 13.9193 18.1891C13.9212 18.3711 13.8699 18.5491 13.7725 18.6983C13.6751 18.8474 13.5366 18.9602 13.3763 19.0207C13.3178 19.0441 13.2673 19.0861 13.2317 19.1411C13.196 19.1961 13.177 19.2615 13.177 19.3284Z" fill="#1AE4FE"/>
<path d="M17.6715 19.0859C17.6715 18.1125 17.4019 17.1609 16.8968 16.3515C16.3917 15.5421 15.6738 14.9112 14.8339 14.5387C13.994 14.1662 13.0697 14.0687 12.1781 14.2586C11.2864 14.4485 10.4674 14.9173 9.82453 15.6056C9.18168 16.294 8.7439 17.171 8.56654 18.1257C8.38917 19.0805 8.4802 20.0701 8.82811 20.9695C9.17602 21.8688 9.76518 22.6375 10.5211 23.1783C11.277 23.7192 12.1657 24.0078 13.0748 24.0078C14.2935 24.0064 15.4619 23.4873 16.3237 22.5646C17.1854 21.6419 17.6701 20.3909 17.6715 19.0859ZM9.0911 19.0859C9.0911 18.2423 9.32474 17.4176 9.76248 16.7161C10.2002 16.0146 10.8224 15.4679 11.5503 15.145C12.2783 14.8222 13.0793 14.7377 13.852 14.9023C14.6248 15.0669 15.3346 15.4731 15.8918 16.0697C16.4489 16.6662 16.8283 17.4263 16.982 18.2538C17.1358 19.0812 17.0569 19.9389 16.7553 20.7183C16.4538 21.4978 15.9432 22.164 15.2881 22.6327C14.633 23.1014 13.8628 23.3516 13.0748 23.3516C12.0186 23.3503 11.006 22.9005 10.2592 22.1008C9.51236 21.3011 9.09227 20.2169 9.0911 19.0859Z" fill="#1AE4FE"/>
<path d="M5.56703 14.1676C5.64831 14.1676 5.72625 14.1331 5.78372 14.0715C5.84119 14.01 5.87347 13.9265 5.87347 13.8395V13.5874C5.87347 13.5004 5.84119 13.4169 5.78372 13.3554C5.72625 13.2938 5.64831 13.2593 5.56703 13.2593C5.48576 13.2593 5.40781 13.2938 5.35034 13.3554C5.29288 13.4169 5.26059 13.5004 5.26059 13.5874V13.8395C5.26059 13.9265 5.29288 14.01 5.35034 14.0715C5.40781 14.1331 5.48576 14.1676 5.56703 14.1676Z" fill="#1AE4FE"/>
<path d="M5.26059 17.7108C5.26059 17.7978 5.29288 17.8813 5.35034 17.9428C5.40781 18.0044 5.48576 18.0389 5.56703 18.0389C5.64831 18.0389 5.72625 18.0044 5.78372 17.9428C5.84119 17.8813 5.87347 17.7978 5.87347 17.7108V14.9911C5.87347 14.9041 5.84119 14.8206 5.78372 14.7591C5.72625 14.6975 5.64831 14.663 5.56703 14.663C5.48576 14.663 5.40781 14.6975 5.35034 14.7591C5.29288 14.8206 5.26059 14.9041 5.26059 14.9911V17.7108Z" fill="#1AE4FE"/>
<path d="M20.8891 11.5391H20.0209V7.66987C20.0209 4.19491 17.3984 1.36719 14.153 1.36719H11.9961C8.75092 1.36719 6.12885 4.19502 6.12885 7.66987V11.5391H5.26059C4.90841 11.5391 4.57065 11.6889 4.32162 11.9555C4.07258 12.2222 3.93268 12.5838 3.93268 12.9609V14.3281C3.93268 14.4151 3.96496 14.4986 4.02243 14.5601C4.0799 14.6217 4.15785 14.6562 4.23912 14.6562C4.32039 14.6562 4.39834 14.6217 4.45581 14.5601C4.51328 14.4986 4.54556 14.4151 4.54556 14.3281V12.9609C4.54556 12.7579 4.6209 12.5631 4.75499 12.4196C4.88908 12.276 5.07096 12.1953 5.26059 12.1953H20.8891C21.0788 12.1953 21.2607 12.276 21.3948 12.4196C21.5288 12.5631 21.6042 12.7579 21.6042 12.9609V25.2109C21.6042 25.414 21.5288 25.6087 21.3948 25.7523C21.2607 25.8959 21.0788 25.9766 20.8891 25.9766H5.26059C5.07096 25.9766 4.88908 25.8959 4.75499 25.7523C4.6209 25.6087 4.54556 25.414 4.54556 25.2109V16.625C4.54556 16.538 4.51328 16.4545 4.45581 16.393C4.39834 16.3314 4.32039 16.2969 4.23912 16.2969C4.15785 16.2969 4.0799 16.3314 4.02243 16.393C3.96496 16.4545 3.93268 16.538 3.93268 16.625V25.2109C3.93268 25.588 4.07258 25.9497 4.32162 26.2164C4.57065 26.483 4.90841 26.6328 5.26059 26.6328H20.8891C21.2413 26.6328 21.5791 26.483 21.8281 26.2164C22.0772 25.9497 22.2171 25.588 22.2171 25.2109V12.9609C22.2171 12.5838 22.0772 12.2222 21.8281 11.9555C21.5791 11.6889 21.2413 11.5391 20.8891 11.5391ZM12.1555 2.02344H13.9942V4.1382C13.892 4.13437 13.8506 4.15625 13.7838 4.15625H12.4957C12.3848 4.15625 12.2577 4.13859 12.1555 4.14898V2.02344ZM8.78468 11.5391H6.74173V7.66987C6.74173 4.71636 8.83575 2.28561 11.5427 2.04416V4.263C10.751 4.4913 10.0518 4.9927 9.5532 5.68954C9.05461 6.38639 8.7845 7.23981 8.78468 8.11765V11.5391ZM16.9054 11.5391H9.39756V8.11798C9.39757 7.68286 9.47781 7.25203 9.63367 6.85019C9.78953 6.44836 10.018 6.08342 10.3058 5.77632C10.5937 5.46922 10.9354 5.226 11.3112 5.0606C11.6871 4.89521 12.0897 4.81089 12.4961 4.8125H13.7832C15.4961 4.8125 16.9054 6.28409 16.9054 8.11765V11.5391ZM19.408 11.5391H17.5183V8.11727C17.5183 6.22092 16.2414 4.62963 14.6071 4.22986V2.04422C17.314 2.28577 19.408 4.71647 19.408 7.66987V11.5391Z" fill="#1AE4FE"/>
</svg>
