<svg width="39" height="42" viewBox="0 0 39 42" fill="none" xmlns="http://www.w3.org/2000/svg">
<path d="M29.3854 19.0467H28.5507V12.3674C28.5507 12.1367 28.3637 11.95 28.1331 11.95H25.6045L24.7744 9.31998C24.7395 9.21021 24.6613 9.1198 24.5581 9.06967C24.4545 9.01945 24.3349 9.01453 24.2273 9.05544L20.8276 10.351L19.3006 7.96787C19.2405 7.87401 19.1454 7.80787 19.0363 7.78475C18.9274 7.76026 18.8131 7.7815 18.7204 7.84335L12.4526 11.95H8.92988C7.31685 11.9518 6.0097 13.2591 6.00771 14.8721V29.9003C6.0097 31.5133 7.31685 32.8206 8.92988 32.8225H28.1331C28.3637 32.8225 28.5507 32.6355 28.5507 32.405V27.3955H29.3854C30.3078 27.3955 31.0554 26.6479 31.0554 25.7259V20.7165C31.0554 19.7941 30.3078 19.0467 29.3854 19.0467ZM29.3854 19.8815C29.8466 19.8815 30.2204 20.2551 30.2204 20.7165C30.2204 21.1776 29.8466 21.5512 29.3854 21.5512H28.5507V19.8815H29.3854ZM27.7156 12.785V16.9593H27.1868L25.8685 12.785H27.7156ZM26.3115 16.9593H25.0946L23.9372 13.4878C23.8805 13.3173 23.7209 13.2021 23.5411 13.2022C23.1171 13.2035 22.71 13.0351 22.411 12.7344L22.1663 12.4897C22.0511 12.3744 21.8793 12.3367 21.7263 12.3932L9.37505 16.9593H8.92988C8.37326 16.9592 7.83977 16.7363 7.44891 16.3402L24.1115 9.99505L26.3115 16.9593ZM24.2146 16.9593H11.7821L21.7654 13.269L21.8206 13.3246C22.201 13.7071 22.6986 13.9513 23.2339 14.0178L24.2146 16.9593ZM18.8238 8.77353L20.029 10.6558L10.2923 14.3636L18.8238 8.77353ZM8.92988 12.785H11.1781L6.96429 15.5457C6.88654 15.3296 6.84531 15.1018 6.84269 14.8721C6.84416 13.72 7.77782 12.7861 8.92988 12.785ZM27.7156 31.9874H8.92988C7.77782 31.9861 6.84416 31.0523 6.84269 29.9003V16.9176C6.84667 16.9213 6.85096 16.9247 6.85473 16.9289C6.88738 16.9614 6.92191 16.9914 6.95592 17.0223C6.98962 17.0532 7.02593 17.0886 7.06308 17.1196C7.10033 17.1505 7.13623 17.1754 7.17285 17.2031C7.20958 17.2307 7.24893 17.2623 7.28891 17.2901C7.32899 17.3174 7.36781 17.3387 7.40716 17.3631C7.44651 17.3873 7.48836 17.4148 7.53232 17.4382C7.57627 17.4614 7.61792 17.4798 7.66093 17.5012C7.70394 17.5223 7.74454 17.5429 7.7887 17.5629C7.83297 17.5829 7.88362 17.5984 7.93102 17.6155C7.97864 17.6326 8.01453 17.6489 8.05848 17.6621C8.11091 17.679 8.16501 17.6908 8.21891 17.704C8.26076 17.7139 8.29886 17.7267 8.33967 17.735C8.4011 17.7478 8.46493 17.7553 8.5272 17.7642C8.56215 17.7689 8.59616 17.7762 8.63163 17.78C8.73063 17.7898 8.83025 17.7945 8.92988 17.7944H9.47289L9.47886 17.8103L9.52354 17.7944H27.7156V21.5512H23.1236C21.5099 21.5512 20.2014 22.8595 20.2014 24.4734C20.2014 26.0873 21.5099 27.3955 23.1236 27.3955H27.7156V31.9874ZM30.2204 25.7259C30.2204 26.187 29.8466 26.5607 29.3854 26.5607H23.1236C21.9709 26.5607 21.0364 25.6262 21.0364 24.4734C21.0364 23.3206 21.9709 22.3863 23.1236 22.3863H29.3854C29.4863 22.3853 29.5864 22.375 29.6854 22.3557C29.709 22.3517 29.7326 22.347 29.7559 22.3413C29.8503 22.3209 29.9428 22.292 30.0322 22.2556L30.0464 22.2488C30.1061 22.2235 30.1641 22.1942 30.2204 22.1621V25.7259Z" fill="#7B7B7B"/>
<path d="M15.6037 20.0624H17.3832V20.9724H15.6037V20.0624Z" fill="#7B7B7B"/>
<path d="M12.0453 20.0624H13.8245V20.9724H12.0453V20.0624Z" fill="#7B7B7B"/>
<path d="M26.2798 20.0624H27.8045V20.9724H26.2798V20.0624Z" fill="#7B7B7B"/>
<path d="M22.7213 20.0624H24.5005V20.9724H22.7213V20.0624Z" fill="#7B7B7B"/>
<path d="M8.59662 19.9985L8.38844 20.8813C8.62863 20.9408 8.87461 20.9715 9.12149 20.9724H10.2657V20.0623H9.12149C8.94486 20.0618 8.76868 20.0405 8.59662 19.9985Z" fill="#7B7B7B"/>
<path d="M19.1624 20.0624H20.9418V20.9724H19.1624V20.0624Z" fill="#7B7B7B"/>
<path d="M8.59662 31.8304L8.38844 32.7131C8.62863 32.7726 8.87461 32.8034 9.12149 32.8043H10.2657V31.8941H9.12149C8.94486 31.8936 8.76868 31.8726 8.59662 31.8304Z" fill="#7B7B7B"/>
<path d="M26.2798 31.8942H27.8045V32.8044H26.2798V31.8942Z" fill="#7B7B7B"/>
<path d="M15.6037 31.8942H17.3832V32.8044H15.6037V31.8942Z" fill="#7B7B7B"/>
<path d="M22.7213 31.8942H24.5005V32.8044H22.7213V31.8942Z" fill="#7B7B7B"/>
<path d="M12.0453 31.8942H13.8245V32.8044H12.0453V31.8942Z" fill="#7B7B7B"/>
<path d="M19.1624 31.8942H20.9418V32.8044H19.1624V31.8942Z" fill="#7B7B7B"/>
<path d="M24.2459 24.6129C23.5089 24.6129 22.9113 25.224 22.9113 25.978C22.9113 26.7318 23.5089 27.3434 24.2459 27.3434C24.9828 27.3434 25.5803 26.7318 25.5803 25.978C25.5803 25.224 24.9828 24.6129 24.2459 24.6129ZM24.2459 26.4332C24.0003 26.4332 23.8011 26.2293 23.8011 25.978C23.8011 25.7266 24.0003 25.523 24.2459 25.523C24.4915 25.523 24.6908 25.7266 24.6908 25.978C24.6908 26.2293 24.4915 26.4332 24.2459 26.4332Z" fill="#7B7B7B"/>
</svg>
