<svg width="25" height="20" viewBox="0 0 25 20" fill="none" xmlns="http://www.w3.org/2000/svg">
<path opacity="0.25" d="M23.3356 19.3202C23.0969 19.4362 22.8358 19.5 22.5668 19.5H2.43316C2.2187 19.5 2.0093 19.4595 1.81224 19.3842C2.00604 19.4508 2.21434 19.487 2.43316 19.487H22.5668C22.8426 19.487 23.1015 19.4271 23.3356 19.3202ZM2.43316 0.541968C2.02136 0.541968 1.63585 0.66961 1.31647 0.896472C1.63228 0.647404 2.01786 0.5 2.43316 0.5H7.09045C7.09211 0.504778 7.09358 0.511654 7.09358 0.520984C7.09358 0.530314 7.09211 0.537191 7.09045 0.541968H2.43316ZM22.5668 0.528944C22.847 0.528944 23.116 0.597074 23.3596 0.719715C23.1149 0.605343 22.8467 0.541968 22.5668 0.541968H14.19C14.1902 0.537128 14.1907 0.532795 14.1912 0.528944H22.5668ZM10.5802 0.520984C10.5802 0.511654 10.5817 0.504778 10.5833 0.5H10.8605C10.8622 0.504778 10.8636 0.511654 10.8636 0.520984C10.8636 0.523383 10.8632 0.525284 10.8623 0.52759C10.8611 0.530362 10.8589 0.533933 10.8554 0.537374C10.8532 0.539614 10.8512 0.541086 10.8497 0.541968H10.5831C10.5814 0.536365 10.5802 0.529369 10.5802 0.520984Z" fill="#EBEBEB" stroke="#EBEBEB"/>
</svg>
