<svg width="25" height="28" viewBox="0 0 25 28" fill="none" xmlns="http://www.w3.org/2000/svg">
<path d="M7.09196 24.7893C7.08329 24.7588 7.06884 24.7289 7.05078 24.7003C7.03272 24.6713 7.01034 24.6437 6.98428 24.6181C6.9583 24.5919 6.92792 24.5676 6.89467 24.5457C6.86142 24.5239 6.82457 24.5039 6.78479 24.4868C6.74575 24.4697 6.70384 24.4549 6.6598 24.443C6.61642 24.4311 6.57092 24.4216 6.52468 24.4159C6.43147 24.4035 6.33605 24.4035 6.24284 24.4159C6.1966 24.4216 6.15109 24.4311 6.10772 24.443C6.06361 24.4549 6.0217 24.4696 5.98272 24.4868C5.94294 24.5039 5.9061 24.5239 5.87285 24.5457C5.8396 24.5676 5.80929 24.5919 5.78323 24.6181C5.75725 24.6438 5.73479 24.6713 5.71674 24.7003C5.69868 24.7289 5.68422 24.7588 5.67556 24.7893C5.66617 24.8197 5.6611 24.8511 5.6611 24.882C5.6611 24.9129 5.66617 24.9443 5.67556 24.9748C5.68422 25.0052 5.69868 25.0351 5.71674 25.0637C5.73479 25.0927 5.75718 25.1203 5.78323 25.146C5.80922 25.1721 5.8396 25.1964 5.87285 25.2183C5.9061 25.2402 5.94294 25.2601 5.98272 25.2773C6.02177 25.2944 6.06368 25.3091 6.10772 25.321C6.15109 25.3329 6.1966 25.3424 6.24284 25.3481C6.28908 25.3543 6.33679 25.3576 6.38376 25.3576C6.43073 25.3576 6.47844 25.3543 6.52468 25.3481C6.57092 25.3424 6.61642 25.3329 6.6598 25.321C6.70391 25.3091 6.74582 25.2944 6.78479 25.2773C6.82457 25.2602 6.86142 25.2402 6.89467 25.2183C6.92792 25.1964 6.9583 25.1721 6.98428 25.146C7.01027 25.1203 7.03272 25.0927 7.05078 25.0637C7.06884 25.0351 7.08329 25.0052 7.09196 24.9748C7.10135 24.9443 7.10641 24.9129 7.10641 24.882C7.10641 24.8511 7.10135 24.8197 7.09196 24.7893Z" fill="#1AE4FE"/>
<path d="M24.9426 23.4515C23.558 20.7078 22.8261 17.6361 22.8261 14.5685V12.9231C22.8261 8.21341 19.597 4.23746 15.2174 3.05255V2.69232C15.2174 1.20777 13.9984 0 12.5 0C11.0016 0 9.78259 1.20777 9.78259 2.69232V3.05255C5.40299 4.23741 2.17391 8.21335 2.17391 12.9231V14.5685C2.17391 17.6361 1.44199 20.7078 0.057375 23.4515C-0.0268557 23.6184 -0.0178585 23.8167 0.081165 23.9754C0.180133 24.1342 0.355053 24.2308 0.54344 24.2308H8.2033C8.4635 26.3514 10.2905 28 12.5 28C14.7095 28 16.5364 26.3514 16.7967 24.2308H24.4566C24.6449 24.2308 24.8199 24.1342 24.9188 23.9754C25.0179 23.8166 25.0269 23.6184 24.9426 23.4515ZM10.8695 2.69232C10.8695 1.80157 11.601 1.07696 12.4999 1.07696C13.3989 1.07696 14.1304 1.80162 14.1304 2.69232V2.81963C14.1177 2.81766 14.1048 2.81597 14.0921 2.814C14.0695 2.81055 14.047 2.80738 14.0243 2.80405C13.9699 2.79606 13.9154 2.78841 13.8608 2.7813C13.8315 2.77747 13.8022 2.7737 13.7728 2.77009C13.7211 2.7638 13.6692 2.758 13.6174 2.75242C13.5898 2.74947 13.5622 2.74624 13.5344 2.74351C13.4597 2.73612 13.3848 2.72951 13.3099 2.72371C13.2837 2.72174 13.2575 2.72016 13.2314 2.7183C13.1775 2.71452 13.1237 2.71102 13.0699 2.70813C13.0398 2.70648 13.0098 2.70512 12.9797 2.7037C12.9259 2.70123 12.8721 2.69921 12.8183 2.69762C12.792 2.6968 12.7657 2.69593 12.7393 2.69533C12.6596 2.69358 12.5797 2.69237 12.4999 2.69237C12.4201 2.69237 12.3402 2.69358 12.2604 2.69538C12.234 2.69598 12.2077 2.69691 12.1814 2.69768C12.1275 2.69932 12.0737 2.70134 12.02 2.70375C11.99 2.70512 11.9599 2.70654 11.9299 2.70818C11.876 2.71108 11.8222 2.71458 11.7684 2.71835C11.7422 2.72016 11.716 2.72169 11.6899 2.72371C11.6149 2.72951 11.54 2.73612 11.4653 2.74351C11.4376 2.74624 11.41 2.74947 11.3823 2.75242C11.3305 2.75795 11.2787 2.7638 11.2269 2.77009C11.1975 2.7737 11.1682 2.77747 11.1389 2.7813C11.0843 2.78841 11.0299 2.79606 10.9754 2.80405C10.9528 2.80738 10.9302 2.81055 10.9076 2.814C10.895 2.81591 10.8821 2.81761 10.8694 2.81958V2.69232H10.8695ZM12.5 26.9231C10.8908 26.9231 9.55165 25.7557 9.29979 24.2308H15.7002C15.4483 25.7556 14.1092 26.9231 12.5 26.9231ZM1.40242 23.1539C1.56304 22.7993 1.71334 22.44 1.85371 22.077H4.89125C5.19142 22.077 5.43472 21.8359 5.43472 21.5385C5.43472 21.2411 5.19142 21.0001 4.89125 21.0001H2.23644C2.91062 18.9255 3.26084 16.7461 3.26084 14.5685V12.9231C3.26084 8.5167 6.41977 4.82776 10.6117 3.96178C10.6242 3.95921 10.6368 3.95642 10.6494 3.95385C10.6994 3.94373 10.7496 3.93449 10.7998 3.9252C10.8353 3.91869 10.8706 3.91207 10.9062 3.90595C10.9416 3.89982 10.9772 3.89413 11.0128 3.88839C11.0664 3.8798 11.1201 3.87155 11.1739 3.86389C11.1953 3.86083 11.2166 3.85793 11.238 3.85503C11.31 3.84535 11.3819 3.83627 11.4541 3.82829C11.46 3.82763 11.4659 3.82692 11.4717 3.82632C12.1538 3.75189 12.8461 3.75189 13.5282 3.82632C13.534 3.82698 13.54 3.82769 13.5458 3.82829C13.618 3.83633 13.69 3.84535 13.762 3.85503C13.7833 3.85793 13.8047 3.86088 13.826 3.86389C13.8799 3.87155 13.9336 3.8798 13.9872 3.88839C14.0227 3.89408 14.0583 3.89982 14.0938 3.90595C14.1293 3.91202 14.1647 3.91863 14.2001 3.9252C14.2504 3.93449 14.3006 3.94373 14.3505 3.95385C14.3631 3.95637 14.3757 3.95916 14.3883 3.96178C18.5801 4.82776 21.739 8.5167 21.739 12.9231V14.5685C21.739 17.515 22.3795 20.465 23.5975 23.1539H1.40242V23.1539Z" fill="#1AE4FE"/>
</svg>
