<svg width="27" height="32" viewBox="0 0 27 32" fill="none" xmlns="http://www.w3.org/2000/svg">
<path d="M14.0356 23.7121V22.3289C14.2653 22.1777 14.4567 21.9547 14.5897 21.6834C14.7227 21.4121 14.7922 21.1027 14.791 20.7878C14.7923 20.3178 14.6386 19.8662 14.3634 19.5323C14.0883 19.1984 13.7142 19.0093 13.3233 19.0066C12.9982 19.0028 12.681 19.1271 12.4203 19.3606C12.1596 19.594 11.9696 19.9237 11.8794 20.2992C11.7892 20.6747 11.8038 21.0754 11.921 21.44C12.0381 21.8046 12.2513 22.1131 12.5281 22.3182V23.7119C12.5281 23.9523 12.6075 24.1828 12.7488 24.3528C12.8902 24.5227 13.0819 24.6182 13.2818 24.6182C13.4817 24.6182 13.6735 24.5227 13.8148 24.3528C13.9562 24.1828 14.0356 23.9523 14.0356 23.7119V23.7121ZM13.4118 22.0896V23.7121C13.4118 23.7535 13.3981 23.7933 13.3737 23.8226C13.3493 23.8519 13.3163 23.8683 13.2818 23.8683C13.2474 23.8683 13.2143 23.8519 13.1899 23.8226C13.1656 23.7933 13.1519 23.7535 13.1519 23.7121V22.0896C13.1519 22.0157 13.1337 21.9435 13.0997 21.882C13.0657 21.8204 13.0174 21.7724 12.9607 21.7438C12.8058 21.6634 12.6742 21.5297 12.5823 21.3595C12.4905 21.1894 12.4427 20.9903 12.4448 20.7875C12.4448 20.2285 12.8471 19.7563 13.3233 19.7563C13.5489 19.7588 13.7644 19.8688 13.9226 20.0621C14.0808 20.2554 14.1688 20.5163 14.1672 20.7875C14.1692 20.9955 14.1169 21.1989 14.0178 21.3694C13.9187 21.5398 13.7777 21.6687 13.6146 21.7379C13.555 21.7646 13.5036 21.8127 13.4674 21.8755C13.4311 21.9384 13.4117 22.0131 13.4118 22.0896Z" fill="#A3A7A2"/>
<path d="M17.9863 21.8126C17.9863 20.7001 17.7119 19.6126 17.1978 18.6875C16.6837 17.7625 15.953 17.0415 15.0981 16.6158C14.2433 16.19 13.3026 16.0787 12.395 16.2957C11.4875 16.5127 10.6538 17.0485 9.99954 17.8351C9.34524 18.6218 8.89966 19.6241 8.71914 20.7152C8.53861 21.8064 8.63127 22.9374 8.98537 23.9652C9.33948 24.9931 9.93913 25.8716 10.7085 26.4896C11.4779 27.1077 12.3824 27.4376 13.3078 27.4376C14.5481 27.436 15.7373 26.8428 16.6144 25.7883C17.4915 24.7337 17.9849 23.304 17.9863 21.8126ZM9.25304 21.8126C9.25304 20.8484 9.49085 19.9059 9.93638 19.1042C10.3819 18.3025 11.0152 17.6777 11.7561 17.3087C12.497 16.9397 13.3122 16.8432 14.0988 17.0313C14.8853 17.2194 15.6078 17.6837 16.1749 18.3655C16.7419 19.0473 17.1281 19.9159 17.2845 20.8616C17.441 21.8072 17.3607 22.7874 17.0538 23.6782C16.7469 24.569 16.2272 25.3304 15.5604 25.866C14.8936 26.4017 14.1097 26.6876 13.3078 26.6876C12.2327 26.6862 11.2021 26.1721 10.442 25.2582C9.68181 24.3443 9.25424 23.1051 9.25304 21.8126Z" fill="#A3A7A2"/>
<path d="M5.66623 16.1918C5.74895 16.1918 5.82829 16.1523 5.88678 16.0819C5.94527 16.0116 5.97813 15.9162 5.97813 15.8168V15.5286C5.97813 15.4292 5.94527 15.3338 5.88678 15.2635C5.82829 15.1932 5.74895 15.1536 5.66623 15.1536C5.58351 15.1536 5.50418 15.1932 5.44568 15.2635C5.38719 15.3338 5.35433 15.4292 5.35433 15.5286V15.8168C5.35433 15.9162 5.38719 16.0116 5.44568 16.0819C5.50418 16.1523 5.58351 16.1918 5.66623 16.1918Z" fill="#A3A7A2"/>
<path d="M5.35433 20.2409C5.35433 20.3404 5.38719 20.4357 5.44568 20.5061C5.50418 20.5764 5.58351 20.6159 5.66623 20.6159C5.74895 20.6159 5.82829 20.5764 5.88678 20.5061C5.94527 20.4357 5.97813 20.3404 5.97813 20.2409V17.1326C5.97813 17.0332 5.94527 16.9378 5.88678 16.8675C5.82829 16.7972 5.74895 16.7576 5.66623 16.7576C5.58351 16.7576 5.50418 16.7972 5.44568 16.8675C5.38719 16.9378 5.35433 17.0332 5.35433 17.1326V20.2409Z" fill="#A3A7A2"/>
<path d="M21.2613 13.1875H20.3775V8.76558C20.3775 4.7942 17.7083 1.5625 14.4052 1.5625H12.2098C8.9068 1.5625 6.23802 4.79432 6.23802 8.76558V13.1875H5.3543C4.99585 13.1875 4.65207 13.3587 4.3986 13.6635C4.14513 13.9682 4.00273 14.3816 4.00273 14.8125V16.375C4.00273 16.4745 4.03559 16.5699 4.09409 16.6402C4.15258 16.7105 4.23191 16.75 4.31463 16.75C4.39736 16.75 4.47669 16.7105 4.53518 16.6402C4.59367 16.5699 4.62654 16.4745 4.62654 16.375V14.8125C4.62654 14.5805 4.70321 14.3579 4.83969 14.1938C4.97618 14.0297 5.16129 13.9375 5.3543 13.9375H21.2613C21.4543 13.9375 21.6394 14.0297 21.7759 14.1938C21.9124 14.3579 21.989 14.5805 21.989 14.8125V28.8126C21.989 29.0446 21.9124 29.2672 21.7759 29.4313C21.6394 29.5954 21.4543 29.6876 21.2613 29.6876H5.3543C5.16129 29.6876 4.97618 29.5954 4.83969 29.4313C4.70321 29.2672 4.62654 29.0446 4.62654 28.8126V19C4.62654 18.9006 4.59367 18.8052 4.53518 18.7349C4.47669 18.6645 4.39736 18.625 4.31463 18.625C4.23191 18.625 4.15258 18.6645 4.09409 18.7349C4.03559 18.8052 4.00273 18.9006 4.00273 19V28.8126C4.00273 29.2435 4.14513 29.6569 4.3986 29.9616C4.65207 30.2664 4.99585 30.4376 5.3543 30.4376H21.2613C21.6197 30.4376 21.9635 30.2664 22.217 29.9616C22.4704 29.6569 22.6128 29.2435 22.6128 28.8126V14.8125C22.6128 14.3816 22.4704 13.9682 22.217 13.6635C21.9635 13.3587 21.6197 13.1875 21.2613 13.1875ZM12.3721 2.3125H14.2435V4.72938C14.1395 4.72501 14.0973 4.75001 14.0293 4.75001H12.7183C12.6054 4.75001 12.476 4.72982 12.3721 4.7417V2.3125ZM8.94117 13.1875H6.86183V8.76558C6.86183 5.39013 8.99315 2.61213 11.7483 2.33619V4.87201C10.9426 5.13293 10.2308 5.70595 9.72338 6.50234C9.21591 7.29874 8.94098 8.27408 8.94117 9.27733V13.1875ZM17.2065 13.1875H9.56497V9.2777C9.56498 8.78043 9.64665 8.28805 9.80528 7.82881C9.96392 7.36957 10.1964 6.9525 10.4894 6.60152C10.7824 6.25055 11.1302 5.97258 11.5127 5.78356C11.8953 5.59453 12.3051 5.49818 12.7187 5.50001H14.0287C15.7722 5.50001 17.2065 7.18183 17.2065 9.27733V13.1875ZM19.7537 13.1875H17.8303V9.27689C17.8303 7.10964 16.5308 5.29101 14.8673 4.83413V2.33625C17.6224 2.61232 19.7537 5.39026 19.7537 8.76558V13.1875Z" fill="#A3A7A2"/>
</svg>
