<svg width="24" height="24" viewBox="0 0 24 24" fill="none" xmlns="http://www.w3.org/2000/svg">
<g clip-path="url(#clip0_13_89)">
<path d="M10.808 12.139L10.085 15.038C10.978 15.26 13.731 16.144 14.138 14.508C14.562 12.803 11.701 12.362 10.808 12.139Z" fill="white"/>
<path d="M12 0C5.373 0 0 5.373 0 12C0 18.627 5.373 24 12 24C18.627 24 24 18.627 24 12C24 5.373 18.627 0 12 0ZM17.146 10.291L17.144 10.293C16.97 11.462 16.322 12.028 15.462 12.226C16.643 12.84 17.245 13.784 16.672 15.419C15.962 17.45 14.273 17.622 12.028 17.197L11.483 19.38L10.166 19.052L10.704 16.898L10.356 16.823C10.003 16.733 9.651 16.639 9.654 16.626L9.114 18.791L7.799 18.463L8.344 16.276C8.036 16.196 7.725 16.113 7.406 16.033L5.692 15.606L6.345 14.099C6.345 14.099 7.315 14.357 7.302 14.337C7.676 14.429 7.841 14.186 7.906 14.024L8.767 10.572C8.816 10.583 8.862 10.595 8.906 10.606C8.854 10.584 8.806 10.571 8.769 10.562L9.383 8.098C9.4 7.816 9.304 7.463 8.77 7.33C8.791 7.317 7.814 7.093 7.814 7.093L8.164 5.687L9.98 6.14L9.979 6.147C10.253 6.214 10.533 6.279 10.82 6.344L11.36 4.181L12.676 4.509L12.148 6.629C12.501 6.71 12.857 6.79 13.203 6.877L13.728 4.771L15.045 5.1L14.506 7.263C16.169 7.836 17.384 8.694 17.146 10.291Z" fill="white"/>
<path d="M11.794 8.18402L11.139 10.813C11.882 10.999 14.174 11.754 14.545 10.267V10.266C14.931 8.71402 12.537 8.36802 11.794 8.18402Z" fill="white"/>
</g>
<defs>
<clipPath id="clip0_13_89">
<rect width="24" height="24" fill="white"/>
</clipPath>
</defs>
</svg>
