<svg width="39" height="42" viewBox="0 0 39 42" fill="none" xmlns="http://www.w3.org/2000/svg">
<path d="M29.3855 19.0467H28.5508V12.3675C28.5508 12.1367 28.3637 11.95 28.1332 11.95H25.6046L24.7745 9.32001C24.7396 9.21024 24.6613 9.11983 24.5581 9.0697C24.4545 9.01947 24.3349 9.01455 24.2274 9.05547L20.8277 10.3511L19.3007 7.9679C19.2406 7.87403 19.1455 7.80789 19.0363 7.78477C18.9275 7.76028 18.8131 7.78152 18.7205 7.84337L12.4526 11.95H8.9299C7.31687 11.9518 6.00972 13.2592 6.00773 14.8721V29.9004C6.00972 31.5134 7.31687 32.8207 8.9299 32.8226H28.1332C28.3637 32.8226 28.5508 32.6356 28.5508 32.4051V27.3956H29.3855C30.3079 27.3956 31.0555 26.648 31.0555 25.726V20.7166C31.0555 19.7941 30.3079 19.0467 29.3855 19.0467ZM29.3855 19.8816C29.8467 19.8816 30.2205 20.2552 30.2205 20.7166C30.2205 21.1776 29.8467 21.5513 29.3855 21.5513H28.5508V19.8816H29.3855ZM27.7157 12.785V16.9594H27.1869L25.8685 12.785H27.7157ZM26.3116 16.9594H25.0947L23.9373 13.4878C23.8806 13.3173 23.721 13.2021 23.5412 13.2022C23.1172 13.2036 22.7101 13.0351 22.4111 12.7345L22.1663 12.4897C22.0512 12.3745 21.8794 12.3367 21.7264 12.3932L9.37507 16.9594H8.9299C8.37328 16.9593 7.83979 16.7364 7.44893 16.3402L24.1116 9.99507L26.3116 16.9594ZM24.2147 16.9594H11.7822L21.7654 13.269L21.8207 13.3247C22.2011 13.7071 22.6987 13.9514 23.2339 14.0178L24.2147 16.9594ZM18.8239 8.77356L20.029 10.6558L10.2923 14.3637L18.8239 8.77356ZM8.9299 12.785H11.1781L6.96431 15.5457C6.88656 15.3297 6.84533 15.1018 6.84271 14.8721C6.84418 13.72 7.77784 12.7862 8.9299 12.785ZM27.7157 31.9875H8.9299C7.77784 31.9862 6.84418 31.0524 6.84271 29.9004V16.9176C6.84669 16.9213 6.85098 16.9248 6.85475 16.9289C6.8874 16.9615 6.92193 16.9914 6.95594 17.0224C6.98964 17.0533 7.02595 17.0886 7.0631 17.1196C7.10035 17.1506 7.13625 17.1755 7.17287 17.2031C7.20961 17.2307 7.24895 17.2623 7.28893 17.2902C7.32901 17.3175 7.36783 17.3387 7.40718 17.3631C7.44653 17.3874 7.48839 17.4148 7.53234 17.4382C7.57629 17.4615 7.61794 17.4799 7.66095 17.5012C7.70396 17.5224 7.74456 17.543 7.78872 17.563C7.83299 17.583 7.88364 17.5985 7.93104 17.6155C7.97866 17.6327 8.01455 17.649 8.0585 17.6622C8.11093 17.679 8.16504 17.6909 8.21893 17.704C8.26079 17.714 8.29888 17.7268 8.33969 17.735C8.40112 17.7479 8.46496 17.7553 8.52722 17.7642C8.56217 17.7689 8.59618 17.7762 8.63166 17.78C8.73065 17.7899 8.83028 17.7946 8.9299 17.7945H9.47292L9.47888 17.8104L9.52357 17.7945H27.7157V21.5513H23.1236C21.51 21.5513 20.2015 22.8596 20.2015 24.4735C20.2015 26.0873 21.51 27.3956 23.1236 27.3956H27.7157V31.9875ZM30.2205 25.726C30.2205 26.1871 29.8467 26.5608 29.3855 26.5608H23.1236C21.9709 26.5608 21.0364 25.6263 21.0364 24.4735C21.0364 23.3206 21.9709 22.3864 23.1236 22.3864H29.3855C29.4864 22.3853 29.5864 22.3751 29.6854 22.3558C29.7091 22.3517 29.7326 22.347 29.756 22.3414C29.8504 22.321 29.9429 22.2921 30.0322 22.2557L30.0465 22.2489C30.1062 22.2235 30.1642 22.1942 30.2205 22.1621V25.726Z" fill="#7B7B7B"/>
<path d="M15.6038 20.0624H17.3832V20.9725H15.6038V20.0624Z" fill="#7B7B7B"/>
<path d="M12.0453 20.0624H13.8245V20.9725H12.0453V20.0624Z" fill="#7B7B7B"/>
<path d="M26.2799 20.0624H27.8045V20.9725H26.2799V20.0624Z" fill="#7B7B7B"/>
<path d="M22.7213 20.0624H24.5006V20.9725H22.7213V20.0624Z" fill="#7B7B7B"/>
<path d="M8.59666 19.9986L8.38848 20.8814C8.62867 20.9408 8.87466 20.9715 9.12154 20.9724H10.2657V20.0623H9.12154C8.94491 20.0619 8.76872 20.0406 8.59666 19.9986Z" fill="#7B7B7B"/>
<path d="M19.1625 20.0624H20.9419V20.9725H19.1625V20.0624Z" fill="#7B7B7B"/>
<path d="M8.59666 31.8305L8.38848 32.7132C8.62867 32.7727 8.87466 32.8035 9.12154 32.8044H10.2657V31.8942H9.12154C8.94491 31.8937 8.76872 31.8727 8.59666 31.8305Z" fill="#7B7B7B"/>
<path d="M26.2799 31.8943H27.8045V32.8045H26.2799V31.8943Z" fill="#7B7B7B"/>
<path d="M15.6038 31.8943H17.3832V32.8045H15.6038V31.8943Z" fill="#7B7B7B"/>
<path d="M22.7213 31.8943H24.5006V32.8045H22.7213V31.8943Z" fill="#7B7B7B"/>
<path d="M12.0453 31.8943H13.8245V32.8045H12.0453V31.8943Z" fill="#7B7B7B"/>
<path d="M19.1625 31.8943H20.9419V32.8045H19.1625V31.8943Z" fill="#7B7B7B"/>
<path d="M24.2459 24.6131C23.509 24.6131 22.9114 25.2242 22.9114 25.9782C22.9114 26.732 23.509 27.3436 24.2459 27.3436C24.9829 27.3436 25.5804 26.732 25.5804 25.9782C25.5804 25.2242 24.9829 24.6131 24.2459 24.6131ZM24.2459 26.4334C24.0004 26.4334 23.8011 26.2295 23.8011 25.9782C23.8011 25.7268 24.0004 25.5232 24.2459 25.5232C24.4916 25.5232 24.6909 25.7268 24.6909 25.9782C24.6909 26.2295 24.4916 26.4334 24.2459 26.4334Z" fill="#7B7B7B"/>
</svg>
