<svg width="30" height="30" viewBox="0 0 30 30" fill="none" xmlns="http://www.w3.org/2000/svg">
<path d="M30 15.0007C30 22.1351 25.0157 28.0939 18.3407 29.6141V17.1529H21.9454V12.9919H18.3043V12.0631C18.3043 10.2796 19.0847 8.83007 20.9416 8.83007C21.6857 8.83007 22.2806 8.94207 22.7643 9.09045L22.9862 4.74319C22.2057 4.52062 21.242 4.37081 19.9779 4.37081C18.3436 4.37081 16.3732 4.8559 14.9622 6.19275C13.3264 7.67941 12.658 10.0942 12.658 12.2856V12.9912H10.2796V17.1522H12.6573V29.7995C5.48866 28.6731 0 22.4861 0 15.0007C0 6.71636 6.71636 5.68218e-08 15.0007 5.68218e-08C23.2851 -0.000713312 30 6.71565 30 15.0007Z" fill="white"/>
</svg>
