<svg width="19" height="21" viewBox="0 0 19 21" fill="none" xmlns="http://www.w3.org/2000/svg">
<path d="M16.8001 2.10001H12.411C11.97 0.882004 10.815 0 9.45004 0C8.08503 0 6.93003 0.882004 6.48903 2.10001H2.10001C0.945004 2.10001 0 3.04501 0 4.20002V18.9001C0 20.0551 0.945004 21.0001 2.10001 21.0001H16.8001C17.9551 21.0001 18.9001 20.0551 18.9001 18.9001V4.20002C18.9001 3.04501 17.9551 2.10001 16.8001 2.10001ZM9.45004 2.10001C10.0275 2.10001 10.5 2.57251 10.5 3.15001C10.5 3.72751 10.0275 4.20002 9.45004 4.20002C8.87253 4.20002 8.40003 3.72751 8.40003 3.15001C8.40003 2.57251 8.87253 2.10001 9.45004 2.10001ZM11.55 16.8001H4.20002V14.7001H11.55V16.8001ZM14.7001 12.6001H4.20002V10.5H14.7001V12.6001ZM14.7001 8.40003H4.20002V6.30003H14.7001V8.40003Z" fill="#7C7C7C"/>
</svg>
