<svg width="27" height="30" viewBox="0 0 27 30" fill="none" xmlns="http://www.w3.org/2000/svg">
<path d="M6.15234 15C6.15234 13.5136 6.51067 12.1213 7.13318 10.9291V5.87195H2.70821C0.951973 8.47867 0 11.6556 0 15C0 18.3444 0.951973 21.5213 2.70821 24.128H7.13318V19.0709C6.51067 17.8787 6.15234 16.4863 6.15234 15Z" fill="#FBBD00"/>
<path d="M13.125 22.9687L10.0488 26.4843L13.125 30C16.0514 30 18.8311 28.912 21.112 26.9049V21.8531H16.6918C15.6395 22.5672 14.416 22.9687 13.125 22.9687Z" fill="#0F9D58"/>
<path d="M7.13319 19.0709L2.70822 24.128C3.05593 24.6441 3.43456 25.1384 3.84425 25.6066C6.32324 28.4397 9.6192 30 13.125 30V22.9688C10.5808 22.9688 8.35095 21.4031 7.13319 19.0709Z" fill="#31AA52"/>
<path d="M26.25 15.0001C26.25 14.0875 26.1777 13.1732 26.0351 12.2827L25.9197 11.562H13.125V18.5933H19.3518C18.7471 19.9679 17.8174 21.0895 16.6917 21.8533L21.112 26.905C21.5636 26.5076 21.996 26.0749 22.4058 25.6067C24.8847 22.7735 26.25 19.0067 26.25 15.0001Z" fill="#3C79E6"/>
<path d="M18.0554 9.36521L18.5992 9.98666L22.9496 5.01486L22.4058 4.39342C19.9268 1.56029 16.6309 0 13.125 0L10.0488 3.51562L13.125 7.03125C14.9874 7.03125 16.7384 7.86012 18.0554 9.36521Z" fill="#CF2D48"/>
<path d="M13.125 7.03125V0C9.61919 0 6.32323 1.56029 3.84419 4.39336C3.4345 4.86158 3.05587 5.35582 2.70816 5.87197L7.13313 10.9291C8.35094 8.59687 10.5808 7.03125 13.125 7.03125Z" fill="#EB4132"/>
</svg>
