<svg width="25" height="18" viewBox="0 0 25 18" fill="none" xmlns="http://www.w3.org/2000/svg">
<path d="M24.2637 0.87733C22.7485 0.241793 21.2321 4.6982e-08 19.7165 4.6982e-08C14.9052 -0.000390572 10.0944 2.43512 5.28312 2.43512C4.0765 2.43512 2.87066 2.282 1.66404 1.89919C1.52849 1.85622 1.39256 1.83591 1.25975 1.83591C0.587491 1.83591 0 2.35621 0 3.07847V15.4712C0 15.9646 0.282417 16.4322 0.735926 16.622C2.25114 17.2579 3.76752 17.4997 5.28312 17.4997C10.0944 17.4997 14.9056 15.0642 19.7169 15.0642C20.9235 15.0642 22.1293 15.2173 23.336 15.6001C23.4715 15.6431 23.6074 15.6634 23.7402 15.6634C24.4125 15.6634 25 15.1431 25 14.4209V2.02848C24.9996 1.53474 24.7172 1.06756 24.2637 0.87733ZM1.87497 3.91478C2.6609 4.11165 3.48119 4.21048 4.32493 4.2636C4.09525 5.41163 3.08589 6.27685 1.87497 6.27685V3.91478ZM1.87497 15.0474V13.181C3.21753 13.181 4.30384 14.2463 4.3636 15.5794C3.48354 15.5087 2.6609 15.333 1.87497 15.0474ZM12.4998 12.4998C10.7737 12.4998 9.37485 10.8205 9.37485 8.74986C9.37485 6.6788 10.774 4.99992 12.4998 4.99992C14.2256 4.99992 15.6248 6.6788 15.6248 8.74986C15.6248 10.8213 14.2252 12.4998 12.4998 12.4998ZM23.1246 13.5849C22.4403 13.4135 21.7297 13.3174 21.0028 13.2553C21.2321 12.2365 22.077 11.4631 23.1246 11.3303V13.5849ZM23.1246 4.36204C21.918 4.20931 20.9817 3.2019 20.9446 1.95778C21.7079 2.04255 22.4325 2.20114 23.1246 2.4523V4.36204Z" fill="#797A79"/>
</svg>
