<svg width="40" height="12" viewBox="0 0 40 12" fill="none" xmlns="http://www.w3.org/2000/svg">
<path d="M2.77082 10.899H4.67207V0.265291H2.77819L0 2.21076V4.03832L2.64554 2.18128H2.77082V10.899Z" fill="white"/>
<path d="M11.4075 11.157C14.112 11.157 15.7185 9.042 15.7185 5.46057C15.7185 4.11201 15.4606 2.97716 14.9668 2.10022C14.252 0.73692 13.0214 0 11.4665 0C9.15254 0 7.51658 1.5549 7.51658 3.73618C7.51658 5.78482 8.99042 7.2734 11.0169 7.2734C12.2623 7.2734 13.2719 6.69123 13.773 5.68165H13.7951C13.7951 5.68165 13.8246 5.68165 13.832 5.68165C13.8467 5.68165 13.8983 5.68165 13.8983 5.68165C13.8983 8.11349 12.9772 9.56522 11.4223 9.56522C10.5085 9.56522 9.80103 9.06411 9.55785 8.26087H7.66396C7.98084 10.0074 9.46205 11.157 11.4075 11.157ZM11.4738 5.76271C10.2506 5.76271 9.38099 4.89315 9.38099 3.67723C9.38099 2.49079 10.2948 1.58438 11.4812 1.58438C12.6676 1.58438 13.5814 2.50553 13.5814 3.70671C13.5814 4.89315 12.6898 5.76271 11.4738 5.76271Z" fill="white"/>
<path d="M19.0567 9.77155C19.7568 9.77155 20.2358 9.27045 20.2358 8.60722C20.2358 7.93662 19.7568 7.44289 19.0567 7.44289C18.364 7.44289 17.8777 7.93662 17.8777 8.60722C17.8777 9.27045 18.364 9.77155 19.0567 9.77155ZM19.0567 4.24466C19.7568 4.24466 20.2358 3.75092 20.2358 3.08769C20.2358 2.4171 19.7568 1.92336 19.0567 1.92336C18.364 1.92336 17.8777 2.4171 17.8777 3.08769C17.8777 3.75092 18.364 4.24466 19.0567 4.24466Z" fill="white"/>
<path d="M26.4849 11.1643C29.0273 11.1643 30.538 9.10096 30.538 5.58585C30.538 2.05601 29.0052 0 26.4849 0C23.9573 0 22.4245 2.05601 22.4245 5.57111C22.4245 9.10096 23.9352 11.1643 26.4849 11.1643ZM26.4849 9.58732C25.1363 9.58732 24.3478 8.18718 24.3478 5.57111C24.3478 2.97716 25.1511 1.58438 26.4849 1.58438C27.8187 1.58438 28.6146 2.96979 28.6146 5.57111C28.6146 8.18718 27.8335 9.58732 26.4849 9.58732Z" fill="white"/>
<path d="M32.5129 3.37509V3.40457H34.2962V3.37509C34.2962 2.29182 35.0479 1.56227 36.1606 1.56227C37.2071 1.56227 37.9735 2.24024 37.9735 3.17612C37.9735 3.92778 37.6124 4.48047 36.1606 5.95431L32.6161 9.57996V10.899H40V9.28519H35.2248V9.15991L37.4503 6.92704C39.2557 5.1437 39.8379 4.20044 39.8379 3.05822C39.8379 1.28224 38.3198 0 36.2196 0C34.0383 0 32.5129 1.38541 32.5129 3.37509Z" fill="white"/>
</svg>
