<svg width="35" height="35" viewBox="0 0 35 35" fill="none" xmlns="http://www.w3.org/2000/svg">
<path d="M17.4999 17.545C7.85058 17.545 0 25.0492 0 34.2726C0 34.6741 0.340892 34.9999 0.760891 34.9999C1.18089 34.9999 1.52178 34.6741 1.52178 34.2726C1.52178 25.8506 8.68915 18.9996 17.5 18.9996C26.3108 18.9996 33.4782 25.8506 33.4782 34.2726C33.4782 34.6741 33.8191 34.9999 34.2391 34.9999C34.6591 34.9999 35 34.6741 35 34.2726C34.9999 25.0477 27.1493 17.545 17.4999 17.545Z" fill="#A3A7A2"/>
<path d="M17.5 0C12.886 0 9.13043 3.58841 9.13043 8.00014C9.13043 12.4119 12.8861 16.0003 17.5 16.0003C22.1138 16.0003 25.8695 12.4119 25.8695 8.00014C25.8695 3.58841 22.1139 0 17.5 0ZM17.5 14.5457C13.7245 14.5457 10.6521 11.6089 10.6521 8.00014C10.6521 4.39134 13.7245 1.45455 17.5 1.45455C21.2754 1.45455 24.3478 4.39134 24.3478 8.00014C24.3478 11.6089 21.2754 14.5457 17.5 14.5457Z" fill="#A3A7A2"/>
</svg>
