<svg width="25" height="25" viewBox="0 0 25 25" fill="none" xmlns="http://www.w3.org/2000/svg">
<path d="M20.684 16.1611C19.3643 14.7997 17.7935 13.7918 16.0797 13.1817C17.9153 11.8775 19.1212 9.69473 19.1212 7.22656C19.1212 3.24185 15.9788 0 12.1164 0C8.25395 0 5.1116 3.24185 5.1116 7.22656C5.1116 9.69473 6.31751 11.8775 8.15309 13.1817C6.43929 13.7918 4.86851 14.7997 3.54882 16.1611C1.26034 18.5221 0 21.6611 0 25H1.89318C1.89318 19.1844 6.47928 14.4531 12.1164 14.4531C17.7535 14.4531 22.3396 19.1844 22.3396 25H24.2328C24.2328 21.6611 22.9724 18.5221 20.684 16.1611ZM12.1164 12.5C9.29786 12.5 7.00478 10.1344 7.00478 7.22656C7.00478 4.31875 9.29786 1.95312 12.1164 1.95312C14.9349 1.95312 17.228 4.31875 17.228 7.22656C17.228 10.1344 14.9349 12.5 12.1164 12.5Z" fill="#A3A7A2"/>
</svg>
